<?xml version="1.0" standalone="no"?>
<!DOCTYPE svg PUBLIC "-//W3C//DTD SVG 20010904//EN"
 "http://www.w3.org/TR/2001/REC-SVG-20010904/DTD/svg10.dtd">
<svg version="1.0" xmlns="http://www.w3.org/2000/svg"
 width="260.000000pt" height="260.000000pt" viewBox="0 0 260.000000 260.000000"
 preserveAspectRatio="xMidYMid meet">
<metadata>
Created by potrace 1.14, written by Peter Selinger 2001-2017
</metadata>
<g transform="translate(0.000000,260.000000) scale(0.100000,-0.100000)"
fill="#000000" stroke="none">
<path d="M1197 2404 c-1 -1 -23 -4 -49 -7 -71 -9 -115 -34 -144 -82 -27 -48
-55 -172 -79 -362 l-7 -53 34 -1 c172 -4 541 0 548 7 4 5 11 40 15 79 4 38 8
72 10 75 2 3 6 35 9 73 4 37 9 73 11 80 4 13 9 47 21 140 l6 59 -187 -4 c-102
-2 -187 -4 -188 -4z"/>
<path d="M1690 1889 c-30 -4 -62 -10 -71 -13 -30 -13 -49 -74 -73 -238 -4 -21
-8 -53 -11 -70 -9 -59 -56 -402 -61 -438 -4 -34 -11 -88 -20 -141 -4 -25 -7
-47 -19 -144 -6 -49 -9 -67 -19 -130 -2 -16 -7 -52 -11 -79 l-6 -48 120 3
c109 4 122 6 144 27 25 24 42 72 52 147 3 23 7 52 10 65 3 14 7 50 10 80 4 30
8 62 10 70 2 8 7 38 10 65 3 28 7 59 9 70 2 11 7 43 10 70 4 28 9 61 11 75 2
14 7 43 9 65 3 22 13 90 21 150 17 117 20 138 30 225 3 30 8 62 10 70 2 8 7
39 10 68 7 58 12 53 -75 56 -25 1 -70 -2 -100 -5z"/>
<path d="M904 1779 c-5 -9 -16 -78 -30 -184 -3 -22 -9 -69 -14 -105 -5 -36
-12 -87 -16 -115 -5 -40 -13 -55 -39 -78 -27 -21 -36 -40 -48 -91 -20 -88 -15
-155 15 -181 22 -19 23 -22 12 -95 -7 -41 -15 -97 -18 -125 -8 -53 -28 -94
-49 -96 -57 -6 -309 -3 -334 3 -18 5 -53 29 -79 53 -47 46 -66 55 -63 33 5
-38 -2 -41 -29 -15 -35 33 -38 33 -46 1 l-7 -27 -33 32 -33 32 -7 -58 c-8 -72
-16 -125 -25 -179 -13 -71 -13 -201 0 -226 26 -49 59 -67 142 -75 76 -8 822
-8 893 0 120 14 166 56 198 182 18 72 24 110 40 230 13 91 17 120 21 145 3 14
7 45 10 70 3 25 8 56 10 70 2 14 6 48 10 75 11 95 14 117 19 143 3 15 8 50 11
77 3 28 7 64 10 80 3 17 7 44 10 60 3 17 8 57 11 90 4 33 8 62 9 65 2 3 7 33
10 65 4 33 10 79 15 102 5 28 4 43 -4 46 -24 9 -566 5 -572 -4z"/>
<path d="M1970 1541 c0 -5 -9 -7 -20 -4 -15 4 -20 0 -21 -13 -1 -22 -7 -77
-13 -114 -9 -68 37 -110 210 -190 l89 -41 -135 -55 c-166 -66 -176 -72 -195
-101 -16 -24 -39 -106 -50 -182 -7 -41 -6 -44 14 -38 11 3 21 0 21 -5 0 -7 5
-6 13 1 8 6 17 8 20 4 6 -5 40 5 122 38 17 7 32 13 35 14 3 1 19 7 35 14 17 7
88 35 160 63 238 94 257 112 272 264 9 95 0 106 -160 182 -78 37 -188 90 -246
118 -58 28 -107 47 -109 43 -2 -5 -12 -4 -23 1 -11 7 -19 7 -19 1z"/>
</g>
</svg>
