<svg xmlns="http://www.w3.org/2000/svg" xmlns:xlink="http://www.w3.org/1999/xlink" width="54" zoomAndPan="magnify" viewBox="0 0 40.5 32.999998" height="44" preserveAspectRatio="xMidYMid meet" version="1.0"><defs><g/><clipPath id="id1"><path d="M 4 0.203125 L 25 0.203125 L 25 32.796875 L 4 32.796875 Z M 4 0.203125 " clip-rule="nonzero"/></clipPath><clipPath id="id2"><path d="M 1 0.203125 L 23 0.203125 L 23 32.796875 L 1 32.796875 Z M 1 0.203125 " clip-rule="nonzero"/></clipPath><clipPath id="id3"><path d="M 2 0.203125 L 24 0.203125 L 24 32.796875 L 2 32.796875 Z M 2 0.203125 " clip-rule="nonzero"/></clipPath></defs><g clip-path="url(#id1)"><g fill="rgb(100%, 0%, 100%)" fill-opacity="1"><g transform="translate(3.587778, 32.312553)"><g><path d="M 20.699219 -31.429688 C 18.542969 -31.429688 17.105469 -31.382812 16.433594 -31.25 C 15.804688 -31.160156 15.265625 -30.933594 14.90625 -30.574219 C 14.546875 -30.214844 14.234375 -29.542969 14.007812 -28.601562 C 13.917969 -28.0625 13.695312 -26.894531 13.425781 -25.144531 L 13.289062 -23.929688 L 19.664062 -23.929688 L 19.800781 -25.144531 Z M 13.019531 -22.269531 L 11.042969 -7.945312 C 11 -7.496094 10.957031 -7.230469 10.867188 -7.050781 C 10.867188 -6.871094 10.777344 -6.691406 10.6875 -6.601562 C 10.597656 -6.511719 10.460938 -6.421875 10.238281 -6.375 C 10.101562 -6.375 9.789062 -6.332031 9.25 -6.332031 L 3.996094 -6.332031 C 3.679688 -6.332031 3.457031 -6.375 3.277344 -6.375 C 3.097656 -6.421875 2.917969 -6.464844 2.738281 -6.554688 C 2.558594 -6.691406 2.378906 -6.871094 2.15625 -7.050781 C 1.976562 -7.230469 1.660156 -7.585938 1.167969 -8.035156 L 0.851562 -5.972656 C 0.671875 -4.714844 0.539062 -3.769531 0.492188 -3.1875 C 0.492188 -2.917969 0.449219 -2.648438 0.449219 -2.425781 C 0.449219 -1.886719 0.539062 -1.4375 0.71875 -1.078125 C 0.988281 -0.582031 1.570312 -0.269531 2.515625 -0.132812 C 3.144531 -0.0429688 4.21875 0 5.835938 0 L 10.507812 0 C 12.121094 0 13.199219 -0.0429688 13.828125 -0.132812 C 14.90625 -0.269531 15.625 -0.628906 15.984375 -1.210938 C 16.296875 -1.660156 16.523438 -2.335938 16.703125 -3.324219 C 16.835938 -3.859375 17.015625 -4.894531 17.195312 -6.332031 L 19.394531 -22.269531 Z M 13.019531 -22.269531 "/></g></g></g></g><g clip-path="url(#id2)"><g fill="rgb(0%, 100%, 100%)" fill-opacity="1"><g transform="translate(1.342879, 32.312553)"><g><path d="M 20.699219 -31.429688 C 18.542969 -31.429688 17.105469 -31.382812 16.433594 -31.25 C 15.804688 -31.160156 15.265625 -30.933594 14.90625 -30.574219 C 14.546875 -30.214844 14.234375 -29.542969 14.007812 -28.601562 C 13.917969 -28.0625 13.695312 -26.894531 13.425781 -25.144531 L 13.289062 -23.929688 L 19.664062 -23.929688 L 19.800781 -25.144531 Z M 13.019531 -22.269531 L 11.042969 -7.945312 C 11 -7.496094 10.957031 -7.230469 10.867188 -7.050781 C 10.867188 -6.871094 10.777344 -6.691406 10.6875 -6.601562 C 10.597656 -6.511719 10.460938 -6.421875 10.238281 -6.375 C 10.101562 -6.375 9.789062 -6.332031 9.25 -6.332031 L 3.996094 -6.332031 C 3.679688 -6.332031 3.457031 -6.375 3.277344 -6.375 C 3.097656 -6.421875 2.917969 -6.464844 2.738281 -6.554688 C 2.558594 -6.691406 2.378906 -6.871094 2.15625 -7.050781 C 1.976562 -7.230469 1.660156 -7.585938 1.167969 -8.035156 L 0.851562 -5.972656 C 0.671875 -4.714844 0.539062 -3.769531 0.492188 -3.1875 C 0.492188 -2.917969 0.449219 -2.648438 0.449219 -2.425781 C 0.449219 -1.886719 0.539062 -1.4375 0.71875 -1.078125 C 0.988281 -0.582031 1.570312 -0.269531 2.515625 -0.132812 C 3.144531 -0.0429688 4.21875 0 5.835938 0 L 10.507812 0 C 12.121094 0 13.199219 -0.0429688 13.828125 -0.132812 C 14.90625 -0.269531 15.625 -0.628906 15.984375 -1.210938 C 16.296875 -1.660156 16.523438 -2.335938 16.703125 -3.324219 C 16.835938 -3.859375 17.015625 -4.894531 17.195312 -6.332031 L 19.394531 -22.269531 Z M 13.019531 -22.269531 "/></g></g></g></g><g clip-path="url(#id3)"><g fill="rgb(93.328857%, 24.308777%, 78.819275%)" fill-opacity="1"><g transform="translate(2.465328, 32.312553)"><g><path d="M 20.699219 -31.429688 C 18.542969 -31.429688 17.105469 -31.382812 16.433594 -31.25 C 15.804688 -31.160156 15.265625 -30.933594 14.90625 -30.574219 C 14.546875 -30.214844 14.234375 -29.542969 14.007812 -28.601562 C 13.917969 -28.0625 13.695312 -26.894531 13.425781 -25.144531 L 13.289062 -23.929688 L 19.664062 -23.929688 L 19.800781 -25.144531 Z M 13.019531 -22.269531 L 11.042969 -7.945312 C 11 -7.496094 10.957031 -7.230469 10.867188 -7.050781 C 10.867188 -6.871094 10.777344 -6.691406 10.6875 -6.601562 C 10.597656 -6.511719 10.460938 -6.421875 10.238281 -6.375 C 10.101562 -6.375 9.789062 -6.332031 9.25 -6.332031 L 3.996094 -6.332031 C 3.679688 -6.332031 3.457031 -6.375 3.277344 -6.375 C 3.097656 -6.421875 2.917969 -6.464844 2.738281 -6.554688 C 2.558594 -6.691406 2.378906 -6.871094 2.15625 -7.050781 C 1.976562 -7.230469 1.660156 -7.585938 1.167969 -8.035156 L 0.851562 -5.972656 C 0.671875 -4.714844 0.539062 -3.769531 0.492188 -3.1875 C 0.492188 -2.917969 0.449219 -2.648438 0.449219 -2.425781 C 0.449219 -1.886719 0.539062 -1.4375 0.71875 -1.078125 C 0.988281 -0.582031 1.570312 -0.269531 2.515625 -0.132812 C 3.144531 -0.0429688 4.21875 0 5.835938 0 L 10.507812 0 C 12.121094 0 13.199219 -0.0429688 13.828125 -0.132812 C 14.90625 -0.269531 15.625 -0.628906 15.984375 -1.210938 C 16.296875 -1.660156 16.523438 -2.335938 16.703125 -3.324219 C 16.835938 -3.859375 17.015625 -4.894531 17.195312 -6.332031 L 19.394531 -22.269531 Z M 13.019531 -22.269531 "/></g></g></g></g><g fill="rgb(100%, 0%, 100%)" fill-opacity="1"><g transform="translate(12.928988, 26.002902)"><g><path d="M 9.449219 -12.316406 L 2.464844 -9.5625 C 1.972656 -9.316406 1.566406 -9.09375 1.300781 -8.914062 C 1.074219 -8.734375 0.894531 -8.554688 0.761719 -8.375 C 0.648438 -8.195312 0.558594 -7.972656 0.46875 -7.703125 C 0.449219 -7.546875 0.378906 -7.210938 0.292969 -6.695312 C 0.246094 -6.359375 0.222656 -6.089844 0.222656 -5.867188 C 0.222656 -5.554688 0.292969 -5.308594 0.378906 -5.082031 C 0.46875 -4.90625 0.648438 -4.726562 0.894531 -4.546875 C 1.121094 -4.410156 1.433594 -4.253906 1.835938 -4.074219 L 4.300781 -2.910156 L 7.882812 -1.1875 C 8.0625 -2.351562 8.152344 -3.089844 8.152344 -3.402344 C 8.152344 -3.828125 8.0625 -4.164062 7.882812 -4.390625 C 7.792969 -4.523438 7.636719 -4.65625 7.433594 -4.792969 C 7.277344 -4.90625 6.941406 -5.105469 6.449219 -5.375 L 3.71875 -6.671875 L 6.875 -7.90625 C 7.503906 -8.152344 7.90625 -8.332031 8.105469 -8.441406 C 8.421875 -8.621094 8.644531 -8.890625 8.777344 -9.203125 C 8.890625 -9.472656 9.003906 -9.808594 9.09375 -10.257812 C 9.183594 -10.617188 9.292969 -11.289062 9.449219 -12.316406 Z M 9.449219 -12.316406 "/></g></g></g><g fill="rgb(0%, 100%, 100%)" fill-opacity="1"><g transform="translate(11.809116, 26.002902)"><g><path d="M 9.449219 -12.316406 L 2.464844 -9.5625 C 1.972656 -9.316406 1.566406 -9.09375 1.300781 -8.914062 C 1.074219 -8.734375 0.894531 -8.554688 0.761719 -8.375 C 0.648438 -8.195312 0.558594 -7.972656 0.46875 -7.703125 C 0.449219 -7.546875 0.378906 -7.210938 0.292969 -6.695312 C 0.246094 -6.359375 0.222656 -6.089844 0.222656 -5.867188 C 0.222656 -5.554688 0.292969 -5.308594 0.378906 -5.082031 C 0.46875 -4.90625 0.648438 -4.726562 0.894531 -4.546875 C 1.121094 -4.410156 1.433594 -4.253906 1.835938 -4.074219 L 4.300781 -2.910156 L 7.882812 -1.1875 C 8.0625 -2.351562 8.152344 -3.089844 8.152344 -3.402344 C 8.152344 -3.828125 8.0625 -4.164062 7.882812 -4.390625 C 7.792969 -4.523438 7.636719 -4.65625 7.433594 -4.792969 C 7.277344 -4.90625 6.941406 -5.105469 6.449219 -5.375 L 3.71875 -6.671875 L 6.875 -7.90625 C 7.503906 -8.152344 7.90625 -8.332031 8.105469 -8.441406 C 8.421875 -8.621094 8.644531 -8.890625 8.777344 -9.203125 C 8.890625 -9.472656 9.003906 -9.808594 9.09375 -10.257812 C 9.183594 -10.617188 9.292969 -11.289062 9.449219 -12.316406 Z M 9.449219 -12.316406 "/></g></g></g><g fill="rgb(100%, 100%, 100%)" fill-opacity="1"><g transform="translate(12.369052, 26.002902)"><g><path d="M 9.449219 -12.316406 L 2.464844 -9.5625 C 1.972656 -9.316406 1.566406 -9.09375 1.300781 -8.914062 C 1.074219 -8.734375 0.894531 -8.554688 0.761719 -8.375 C 0.648438 -8.195312 0.558594 -7.972656 0.46875 -7.703125 C 0.449219 -7.546875 0.378906 -7.210938 0.292969 -6.695312 C 0.246094 -6.359375 0.222656 -6.089844 0.222656 -5.867188 C 0.222656 -5.554688 0.292969 -5.308594 0.378906 -5.082031 C 0.46875 -4.90625 0.648438 -4.726562 0.894531 -4.546875 C 1.121094 -4.410156 1.433594 -4.253906 1.835938 -4.074219 L 4.300781 -2.910156 L 7.882812 -1.1875 C 8.0625 -2.351562 8.152344 -3.089844 8.152344 -3.402344 C 8.152344 -3.828125 8.0625 -4.164062 7.882812 -4.390625 C 7.792969 -4.523438 7.636719 -4.65625 7.433594 -4.792969 C 7.277344 -4.90625 6.941406 -5.105469 6.449219 -5.375 L 3.71875 -6.671875 L 6.875 -7.90625 C 7.503906 -8.152344 7.90625 -8.332031 8.105469 -8.441406 C 8.421875 -8.621094 8.644531 -8.890625 8.777344 -9.203125 C 8.890625 -9.472656 9.003906 -9.808594 9.09375 -10.257812 C 9.183594 -10.617188 9.292969 -11.289062 9.449219 -12.316406 Z M 9.449219 -12.316406 "/></g></g></g><g fill="rgb(100%, 0%, 100%)" fill-opacity="1"><g transform="translate(22.602315, 26.002902)"><g><path d="M 2.464844 -14.355469 L 1.949219 -10.683594 L 1.367188 -6.5625 L 0.671875 -1.476562 L 0.222656 1.65625 C 1.367188 1.65625 2.105469 1.613281 2.417969 1.566406 C 2.800781 1.476562 3.066406 1.300781 3.226562 1.050781 C 3.359375 0.875 3.472656 0.582031 3.5625 0.179688 C 3.652344 -0.0898438 3.738281 -0.648438 3.851562 -1.5 L 4.390625 -5.398438 L 5.128906 -10.570312 L 5.644531 -14.355469 L 6.089844 -17.535156 L 5.417969 -17.535156 C 4.746094 -17.535156 4.277344 -17.511719 3.988281 -17.445312 C 3.671875 -17.402344 3.402344 -17.265625 3.226562 -17.085938 C 3.046875 -16.910156 2.890625 -16.550781 2.753906 -16.058594 C 2.710938 -15.789062 2.597656 -15.207031 2.464844 -14.355469 Z M 2.464844 -14.355469 "/></g></g></g><g fill="rgb(100%, 0%, 100%)" fill-opacity="1"><g transform="translate(28.917406, 26.002902)"><g><path d="M 0.222656 -1.34375 L 7.234375 -4.097656 C 7.75 -4.34375 8.128906 -4.570312 8.375 -4.746094 C 8.621094 -4.925781 8.800781 -5.105469 8.914062 -5.285156 C 9.046875 -5.464844 9.136719 -5.6875 9.203125 -5.957031 C 9.25 -6.136719 9.316406 -6.472656 9.382812 -6.964844 C 9.429688 -7.324219 9.449219 -7.59375 9.449219 -7.792969 C 9.449219 -8.105469 9.40625 -8.375 9.316406 -8.554688 C 9.226562 -8.777344 9.046875 -8.957031 8.777344 -9.09375 C 8.578125 -9.25 8.265625 -9.40625 7.859375 -9.5625 L 5.375 -10.75 L 1.792969 -12.472656 C 1.613281 -11.332031 1.523438 -10.59375 1.523438 -10.234375 C 1.523438 -9.832031 1.636719 -9.496094 1.8125 -9.273438 C 1.925781 -9.136719 2.082031 -9.003906 2.261719 -8.867188 C 2.441406 -8.757812 2.753906 -8.554688 3.226562 -8.285156 L 5.957031 -6.988281 L 2.800781 -5.734375 C 2.195312 -5.507812 1.792969 -5.351562 1.589844 -5.21875 C 1.277344 -5.039062 1.050781 -4.769531 0.894531 -4.433594 C 0.804688 -4.210938 0.695312 -3.851562 0.582031 -3.382812 C 0.515625 -3.046875 0.402344 -2.375 0.222656 -1.34375 Z M 0.222656 -1.34375 "/></g></g></g><g fill="rgb(0%, 100%, 100%)" fill-opacity="1"><g transform="translate(21.482443, 26.002902)"><g><path d="M 2.464844 -14.355469 L 1.949219 -10.683594 L 1.367188 -6.5625 L 0.671875 -1.476562 L 0.222656 1.65625 C 1.367188 1.65625 2.105469 1.613281 2.417969 1.566406 C 2.800781 1.476562 3.066406 1.300781 3.226562 1.050781 C 3.359375 0.875 3.472656 0.582031 3.5625 0.179688 C 3.652344 -0.0898438 3.738281 -0.648438 3.851562 -1.5 L 4.390625 -5.398438 L 5.128906 -10.570312 L 5.644531 -14.355469 L 6.089844 -17.535156 L 5.417969 -17.535156 C 4.746094 -17.535156 4.277344 -17.511719 3.988281 -17.445312 C 3.671875 -17.402344 3.402344 -17.265625 3.226562 -17.085938 C 3.046875 -16.910156 2.890625 -16.550781 2.753906 -16.058594 C 2.710938 -15.789062 2.597656 -15.207031 2.464844 -14.355469 Z M 2.464844 -14.355469 "/></g></g></g><g fill="rgb(0%, 100%, 100%)" fill-opacity="1"><g transform="translate(27.797534, 26.002902)"><g><path d="M 0.222656 -1.34375 L 7.234375 -4.097656 C 7.75 -4.34375 8.128906 -4.570312 8.375 -4.746094 C 8.621094 -4.925781 8.800781 -5.105469 8.914062 -5.285156 C 9.046875 -5.464844 9.136719 -5.6875 9.203125 -5.957031 C 9.25 -6.136719 9.316406 -6.472656 9.382812 -6.964844 C 9.429688 -7.324219 9.449219 -7.59375 9.449219 -7.792969 C 9.449219 -8.105469 9.40625 -8.375 9.316406 -8.554688 C 9.226562 -8.777344 9.046875 -8.957031 8.777344 -9.09375 C 8.578125 -9.25 8.265625 -9.40625 7.859375 -9.5625 L 5.375 -10.75 L 1.792969 -12.472656 C 1.613281 -11.332031 1.523438 -10.59375 1.523438 -10.234375 C 1.523438 -9.832031 1.636719 -9.496094 1.8125 -9.273438 C 1.925781 -9.136719 2.082031 -9.003906 2.261719 -8.867188 C 2.441406 -8.757812 2.753906 -8.554688 3.226562 -8.285156 L 5.957031 -6.988281 L 2.800781 -5.734375 C 2.195312 -5.507812 1.792969 -5.351562 1.589844 -5.21875 C 1.277344 -5.039062 1.050781 -4.769531 0.894531 -4.433594 C 0.804688 -4.210938 0.695312 -3.851562 0.582031 -3.382812 C 0.515625 -3.046875 0.402344 -2.375 0.222656 -1.34375 Z M 0.222656 -1.34375 "/></g></g></g><g fill="rgb(93.328857%, 24.308777%, 78.819275%)" fill-opacity="1"><g transform="translate(22.042379, 26.002902)"><g><path d="M 2.464844 -14.355469 L 1.949219 -10.683594 L 1.367188 -6.5625 L 0.671875 -1.476562 L 0.222656 1.65625 C 1.367188 1.65625 2.105469 1.613281 2.417969 1.566406 C 2.800781 1.476562 3.066406 1.300781 3.226562 1.050781 C 3.359375 0.875 3.472656 0.582031 3.5625 0.179688 C 3.652344 -0.0898438 3.738281 -0.648438 3.851562 -1.5 L 4.390625 -5.398438 L 5.128906 -10.570312 L 5.644531 -14.355469 L 6.089844 -17.535156 L 5.417969 -17.535156 C 4.746094 -17.535156 4.277344 -17.511719 3.988281 -17.445312 C 3.671875 -17.402344 3.402344 -17.265625 3.226562 -17.085938 C 3.046875 -16.910156 2.890625 -16.550781 2.753906 -16.058594 C 2.710938 -15.789062 2.597656 -15.207031 2.464844 -14.355469 Z M 2.464844 -14.355469 "/></g></g></g><g fill="rgb(93.328857%, 24.308777%, 78.819275%)" fill-opacity="1"><g transform="translate(28.35747, 26.002902)"><g><path d="M 0.222656 -1.34375 L 7.234375 -4.097656 C 7.75 -4.34375 8.128906 -4.570312 8.375 -4.746094 C 8.621094 -4.925781 8.800781 -5.105469 8.914062 -5.285156 C 9.046875 -5.464844 9.136719 -5.6875 9.203125 -5.957031 C 9.25 -6.136719 9.316406 -6.472656 9.382812 -6.964844 C 9.429688 -7.324219 9.449219 -7.59375 9.449219 -7.792969 C 9.449219 -8.105469 9.40625 -8.375 9.316406 -8.554688 C 9.226562 -8.777344 9.046875 -8.957031 8.777344 -9.09375 C 8.578125 -9.25 8.265625 -9.40625 7.859375 -9.5625 L 5.375 -10.75 L 1.792969 -12.472656 C 1.613281 -11.332031 1.523438 -10.59375 1.523438 -10.234375 C 1.523438 -9.832031 1.636719 -9.496094 1.8125 -9.273438 C 1.925781 -9.136719 2.082031 -9.003906 2.261719 -8.867188 C 2.441406 -8.757812 2.753906 -8.554688 3.226562 -8.285156 L 5.957031 -6.988281 L 2.800781 -5.734375 C 2.195312 -5.507812 1.792969 -5.351562 1.589844 -5.21875 C 1.277344 -5.039062 1.050781 -4.769531 0.894531 -4.433594 C 0.804688 -4.210938 0.695312 -3.851562 0.582031 -3.382812 C 0.515625 -3.046875 0.402344 -2.375 0.222656 -1.34375 Z M 0.222656 -1.34375 "/></g></g></g></svg>